<svg width="42" height="30" viewBox="0 0 42 30" fill="none" xmlns="http://www.w3.org/2000/svg">
<g clip-path="url(#clip0_20_103)">
<path d="M11.9966 23.4723C10.5303 24.217 9.35112 25.1143 8.44881 26.1776C7.92074 26.8147 7.11583 28.0125 6.02382 29.7802C4.89592 27.9452 4.09101 26.7429 3.59884 26.1776C2.62475 25.0829 1.44045 24.1812 0.0510849 23.4723C1.36355 22.8711 2.20947 22.1309 2.58373 21.2471C2.8452 20.61 2.9785 19.4974 2.9785 17.9092V10.8611C2.9785 8.59994 1.98389 7.0656 -0.00531006 6.24908C1.30715 6.24908 2.58373 5.49088 3.82442 3.96999C4.79851 2.80353 5.53165 1.48005 6.0187 -0.00494385C6.50574 1.30508 7.27477 2.59267 8.33089 3.86232C9.60747 5.3832 10.8276 6.17729 11.9914 6.24908C10.0381 7.097 9.06402 8.63583 9.06402 10.8611V17.9092C9.06402 19.5333 9.19732 20.6459 9.45879 21.2471C9.83817 22.1354 10.6841 22.8756 11.9966 23.4723Z" fill="white"/>
<path d="M26.9927 23.4728C25.5264 24.2175 24.3472 25.1148 23.4449 26.1781C22.9169 26.8151 22.112 28.013 21.0199 29.7806C19.892 27.9457 19.0871 26.7433 18.595 26.1781C17.6209 25.0834 16.4366 24.1816 15.0472 23.4728C16.3597 22.8716 17.2056 22.1313 17.5799 21.2475C17.8413 20.6105 17.9746 19.4978 17.9746 17.9096V10.8615C17.9746 8.6004 16.98 7.06606 14.9908 6.24953C16.3033 6.24953 17.5799 5.49134 18.8205 3.97045C19.7998 2.80848 20.5329 1.48499 21.0199 0C21.507 1.31002 22.276 2.59762 23.3321 3.86726C24.6087 5.38815 25.8289 6.18224 26.9927 6.25402C25.0394 7.10195 24.0653 8.64078 24.0653 10.866V17.9141C24.0653 19.5382 24.1986 20.6508 24.46 21.252C24.8343 22.1358 25.6802 22.8761 26.9927 23.4728Z" fill="white"/>
<path d="M41.9886 23.4725C40.5223 24.2172 39.3432 25.1145 38.4408 26.1778C37.9128 26.8149 37.1079 28.0127 36.0159 29.7804C34.888 27.9454 34.083 26.7431 33.5909 26.1778C32.6168 25.0831 31.4325 24.1813 30.0431 23.4725C31.3556 22.8713 32.2015 22.1311 32.5758 21.2472C32.8372 20.6102 32.9705 19.4976 32.9705 17.9094V10.8613C32.9705 8.60013 31.9759 7.06578 29.9867 6.24926C31.2992 6.24926 32.5758 5.49106 33.8165 3.97018C34.7906 2.80372 35.5237 1.48023 36.0107 -0.00476074C36.4978 1.30526 37.2668 2.59286 38.3229 3.8625C39.5995 5.38339 40.8197 6.17748 41.9835 6.24926C40.0302 7.09719 39.0561 8.63602 39.0561 10.8613V17.9094C39.0561 19.5334 39.1894 20.6461 39.4508 21.2472C39.8302 22.1356 40.6761 22.8758 41.9886 23.4725Z" fill="white"/>
</g>
<defs>
<clipPath id="clip0_20_103">
<rect width="41.9886" height="29.7806" fill="white"/>
</clipPath>
</defs>
</svg>
